<svg xmlns="http://www.w3.org/2000/svg" xmlns:xlink="http://www.w3.org/1999/xlink" width="92.898" height="106.5" viewBox="0 0 92.898 106.5"><defs><style>.a{fill:url(#a);}.b{fill:url(#d);}.c{fill:#008098;}.d{filter:url(#e);}.e{filter:url(#b);}</style><linearGradient id="a" x1="0.187" y1="-0.01" x2="1.326" y2="1.347" gradientUnits="objectBoundingBox"><stop offset="0" stop-color="#7ecf00"/><stop offset="0.164" stop-color="#79ce00"/><stop offset="0.346" stop-color="#6ccc00"/><stop offset="0.536" stop-color="#56c900"/><stop offset="0.732" stop-color="#37c500"/><stop offset="0.93" stop-color="#0fc000"/><stop offset="1" stop-color="#00be00"/></linearGradient><filter id="b" x="0" y="0" width="87.035" height="67.832" filterUnits="userSpaceOnUse"><feOffset dy="3" input="SourceAlpha"/><feGaussianBlur stdDeviation="3" result="c"/><feFlood flood-opacity="0.161"/><feComposite operator="in" in2="c"/><feComposite in="SourceGraphic"/></filter><linearGradient id="d" x1="-0.089" y1="-0.094" x2="1.069" y2="0.891" xlink:href="#a"/><filter id="e" x="7.004" y="19.918" width="85.893" height="86.582" filterUnits="userSpaceOnUse"><feOffset dy="3" input="SourceAlpha"/><feGaussianBlur stdDeviation="3" result="f"/><feFlood flood-opacity="0.161"/><feComposite operator="in" in2="f"/><feComposite in="SourceGraphic"/></filter></defs><g transform="translate(9 6)"><g class="e" transform="matrix(1, 0, 0, 1, -9, -6)"><path class="a" d="M1425.579,361.468H1405.7c-13.644,0-25.071-10.793-25.33-24.434a24.943,24.943,0,0,1,24.911-25.4H1449.4a10,10,0,0,1-10,10h-33.8a15.127,15.127,0,0,0-15.23,14.468,14.936,14.936,0,0,0,14.912,15.371h20.3a5,5,0,0,1,5,5h0A5,5,0,0,1,1425.579,361.468Z" transform="translate(-1371.37 -305.64)"/></g><g transform="translate(7.004 19.918)"><g class="d" transform="matrix(1, 0, 0, 1, -16, -25.92)"><path class="b" d="M1438.135,457.2l-30.7-29.662h0a10.008,10.008,0,0,1,14.143-.238l16.928,16.35c4.135-3.6,8.043-7.045,11.864-10.458,1.048-.936,2.143-1.872,3.2-2.777,6.048-5.169,11.76-10.051,11.76-16.88a14.936,14.936,0,0,0-14.919-14.919h-21.537a5,5,0,0,1-5-5h0a5,5,0,0,1,5-5h21.065a25.271,25.271,0,0,1,25.3,22.931c1.048,12.6-7.994,20.324-15.178,26.465-1.065.91-2.07,1.769-3.037,2.632-4.908,4.384-9.957,8.82-15.438,13.561Z" transform="translate(-1391.43 -362.7)"/></g></g><rect class="c" width="19.274" height="9.997" rx="4.998" transform="translate(30.969 39.835)"/></g></svg>