<svg xmlns="http://www.w3.org/2000/svg" width="88.5" height="88.5" viewBox="0 0 88.5 88.5"><defs><style>.a{fill:#ced6dd;}.b{fill:#f5f7f8;}.c{fill:#19ba19;}.d{fill:#e7ebf2;}.e{fill:#f1f3f7;}.f{fill:#838792;}.g{fill:#9c9fa8;}.h{fill:#fff;}</style></defs><path class="a" d="M56.15,49.6H6L8.3,31.168A5.9,5.9,0,0,1,14.158,26H47.992a5.9,5.9,0,0,1,5.854,5.168Z" transform="translate(-0.1 9.4)"/><path class="b" d="M50.676,26.671A5.85,5.85,0,0,0,47.992,26H14.158A5.9,5.9,0,0,0,8.3,31.168L6,49.6H38.043A47.6,47.6,0,0,0,50.676,26.671Z" transform="translate(-0.1 9.4)"/><path class="c" d="M13.446,26a5.9,5.9,0,0,0-5.854,5.168L7.5,31.9H53.225l-.091-.732A5.9,5.9,0,0,0,47.279,26Z" transform="translate(0.613 9.4)"/><path class="c" d="M53.6,2C72.644,2,83.817,22.988,72.921,38.291L53.6,63.95,34.279,38.291C23.383,22.988,34.556,2,53.6,2Z" transform="translate(11.3 -2)"/><path class="c" d="M65.4,9.375a34.22,34.22,0,0,0-.3-4.48A23.745,23.745,0,0,0,53.6,2C34.556,2,23.383,22.988,34.279,38.291l2.58,3.425C52.826,40.415,65.4,26.438,65.4,9.375Z" transform="translate(11.3 -2)"/><circle class="d" cx="15" cy="15" r="15" transform="translate(50 8.75)"/><path class="e" d="M61.9,13.109A14.74,14.74,0,1,0,44.379,36.038,32.2,32.2,0,0,0,61.9,13.109Z" transform="translate(14.15 0.85)"/><path class="c" d="M2,62.65V49.375A7.376,7.376,0,0,1,9.375,42h47.2a7.376,7.376,0,0,1,7.375,7.375V62.65Z" transform="translate(-2 17)"/><path class="c" d="M39.943,42H9.375A7.376,7.376,0,0,0,2,49.375V59.439C17.17,58.092,30.587,51.6,39.943,42Z" transform="translate(-2 17)"/><path class="f" d="M16,46H36.65V60.75H16Z" transform="translate(4.65 18.9)"/><path class="g" d="M26.477,46H16v6.135A58.81,58.81,0,0,0,26.477,46Z" transform="translate(4.65 18.9)"/><path class="c" d="M9.191,35h-3.5a3.688,3.688,0,0,0,0,7.375H8.269Z" transform="translate(-2 13.675)"/><ellipse class="h" cx="5" cy="4.5" rx="5" ry="4.5" transform="translate(45 65.75)"/><path class="f" d="M46.75,56v5.9a2.949,2.949,0,0,1-2.95,2.95H34.95A2.949,2.949,0,0,1,32,61.9V56Z" transform="translate(12.25 23.65)"/><path class="f" d="M18.75,56v5.9a2.949,2.949,0,0,1-2.95,2.95H6.95A2.949,2.949,0,0,1,4,61.9V56Z" transform="translate(-1.05 23.65)"/><g transform="translate(60.475 14.75)"><path class="f" d="M45.95,29.7H43V13.475A1.475,1.475,0,0,1,44.475,12h5.163a5.162,5.162,0,1,1,0,10.325H45.95Zm0-10.325h3.687a2.213,2.213,0,0,0,0-4.425H45.95Z" transform="translate(-43 -12)"/></g><circle class="h" cx="4.5" cy="4.5" r="4.5" transform="translate(8 65.75)"/></svg>