<svg xmlns="http://www.w3.org/2000/svg" width="77.75" height="88.75" viewBox="0 0 77.75 88.75"><defs><style>.a{fill:#fed843;}.b{fill:#fabe2c;}.c{fill:#ff9100;}.d{fill:#92cc12;}.e{fill:#19ba19;}</style></defs><path class="a" d="M78.552,362H45.3l-6.587,5.141H33.57a2.57,2.57,0,0,0-2.57,2.57v5.141a2.57,2.57,0,0,0,2.57,2.57h5.141l6.426,5.141H80l4.98-5.141V367.141Z" transform="translate(-31 -299.968)"/><path class="b" d="M226,382.563h15.583l4.98-5.141V367.141L240.137,362H226" transform="translate(-192.585 -299.968)"/><path class="b" d="M89.274,452H63.57A2.57,2.57,0,0,0,61,454.57v5.141a2.57,2.57,0,0,0,2.57,2.57h46.267V452Z" transform="translate(-55.859 -374.546)"/><path class="c" d="M226,452h20.563v10.282H226Z" transform="translate(-192.585 -374.546)"/><path class="b" d="M104.215,302H70.8l-7.229,5.141a2.57,2.57,0,0,0-2.57,2.57v5.141a2.57,2.57,0,0,0,2.57,2.57h46.267V307.141Z" transform="translate(-55.859 -250.25)"/><path class="b" d="M246.563,307.141,240.94,302H226v15.422h20.563Z" transform="translate(-192.585 -250.25)"/><path class="a" d="M78.392,242H51.562l-7.71,5.141H33.57a2.57,2.57,0,0,0-2.57,2.57v5.141a2.57,2.57,0,0,0,2.57,2.57H84.978V247.141Z" transform="translate(-31 -200.531)"/><path class="b" d="M246.563,247.141,239.977,242H226v15.422h20.563Z" transform="translate(-192.585 -200.531)"/><path class="b" d="M134.7,212H93.57A2.57,2.57,0,0,0,91,214.57v5.141a2.57,2.57,0,0,0,2.57,2.57H134.7a2.57,2.57,0,0,0,2.57-2.57V214.57A2.57,2.57,0,0,0,134.7,212Z" transform="translate(-80.718 -175.672)"/><path class="c" d="M249.134,219.711V214.57a2.57,2.57,0,0,0-2.57-2.57H226v10.282h20.563A2.57,2.57,0,0,0,249.134,219.711Z" transform="translate(-192.585 -175.672)"/><g transform="translate(29.25 41.25)"><ellipse class="a" cx="24" cy="23.5" rx="24" ry="23.5" transform="translate(0.5 0.5)"/><path class="b" d="M369.134,265.134A23.133,23.133,0,0,0,346,242v46.267A23.134,23.134,0,0,0,369.134,265.134Z" transform="translate(-321.272 -241.781)"/><g transform="translate(16.711 10.158)"><path class="b" d="M312.186,311.977a15.424,15.424,0,0,0-4.486-1.31,12.218,12.218,0,0,1-3-.791c-.342-.183-.342-.23-.342-.538,0-.182.3-.515.863-.8a4.642,4.642,0,0,1,4.412.128,2.57,2.57,0,0,0,3.084-4.113A8.173,8.173,0,0,0,309.8,303.2v-.63a2.57,2.57,0,1,0-5.141,0v.707a9.672,9.672,0,0,0-1.742.666,6.068,6.068,0,0,0-3.705,5.4,5.47,5.47,0,0,0,3.062,5.073,15.426,15.426,0,0,0,4.486,1.31,12.208,12.208,0,0,1,3,.791c.342.182.342.23.342.538,0,.176-.3.515-.868.8a4.638,4.638,0,0,1-4.408-.127,2.57,2.57,0,0,0-3.085,4.113,8.172,8.172,0,0,0,2.913,1.356v.63a2.57,2.57,0,0,0,5.141,0v-.71a9.662,9.662,0,0,0,1.738-.663,6.07,6.07,0,0,0,3.71-5.4A5.47,5.47,0,0,0,312.186,311.977Z" transform="translate(-299.213 -300)"/><g transform="translate(8.017 0)"><path class="c" d="M348.4,308.669a2.57,2.57,0,0,0,3.084-4.113,8.175,8.175,0,0,0-2.913-1.357v-.629A2.57,2.57,0,0,0,346,300v8.054A3.879,3.879,0,0,1,348.4,308.669Z" transform="translate(-346 -300)"/><path class="c" d="M348.57,374.979v-.71a9.663,9.663,0,0,0,1.738-.663,6.07,6.07,0,0,0,3.709-5.4,5.47,5.47,0,0,0-3.062-5.073,15.428,15.428,0,0,0-4.486-1.31l-.469-.088v5.23a10.076,10.076,0,0,1,2.535.7c.342.182.342.23.342.538,0,.176-.3.515-.868.8a4.943,4.943,0,0,1-2.009.486v8.056A2.57,2.57,0,0,0,348.57,374.979Z" transform="translate(-346 -351.16)"/></g></g></g><path class="d" d="M175.948,11.035,165.667.753a2.569,2.569,0,0,0-3.635,0L151.751,11.035a2.57,2.57,0,0,0,1.817,4.388h2.57v8.054a2.569,2.569,0,0,0,2.57,2.57H168.99a2.569,2.569,0,0,0,2.57-2.57V15.422h2.57a2.57,2.57,0,0,0,1.817-4.388Z" transform="translate(-130.435 0)"/><path class="e" d="M233.711,23.476V15.422h2.57a2.57,2.57,0,0,0,1.817-4.388L227.817.753A2.562,2.562,0,0,0,226,0V26.047h5.141A2.569,2.569,0,0,0,233.711,23.476Z" transform="translate(-192.585 0)"/></svg>